<svg xmlns="http://www.w3.org/2000/svg" xmlns:xlink="http://www.w3.org/1999/xlink" width="24" height="22" viewBox="0 0 24 22"><defs><clipPath id="b"><rect width="24" height="22"/></clipPath></defs><g id="a" clip-path="url(#b)"><g transform="translate(1 -23)"><path d="M19.842,25.347H17.8V24.316a.316.316,0,0,0-.631,0v1.031H14.434V24.316a.316.316,0,0,0-.631,0v1.031H11.068V24.316a.316.316,0,0,0-.631,0v1.031H7.7V24.316a.316.316,0,0,0-.631,0v1.031H4.334V24.316a.316.316,0,0,0-.631,0v1.031H1.662A1.664,1.664,0,0,0,0,27.009V41.822a1.664,1.664,0,0,0,1.662,1.662H19.842A1.664,1.664,0,0,0,21.5,41.822V27.009A1.664,1.664,0,0,0,19.842,25.347Zm1.031,16.475a1.032,1.032,0,0,1-1.031,1.031H1.662A1.032,1.032,0,0,1,.631,41.822V27.009a1.032,1.032,0,0,1,1.031-1.031H3.7v1.031a.316.316,0,0,0,.631,0V25.978H7.07v1.031a.316.316,0,0,0,.631,0V25.978h2.735v1.031a.316.316,0,0,0,.631,0V25.978H13.8v1.031a.316.316,0,0,0,.631,0V25.978h2.735v1.031a.316.316,0,0,0,.631,0V25.978h2.041a1.032,1.032,0,0,1,1.031,1.031Z" fill="#bdc7d3" stroke="#bdc7d3" stroke-width="1"/><path d="M50.5,136H32.316a.316.316,0,1,0,0,.631H50.5a.316.316,0,1,0,0-.631Z" transform="translate(-30.653 -107.287)" fill="#bdc7d3" stroke="#bdc7d3" stroke-width="1"/><path d="M138.865,224.093l-6.594,6.594a.358.358,0,0,1-.506,0l-3.227-3.227a.316.316,0,1,0-.446.446l3.227,3.227a.989.989,0,0,0,1.4,0l6.594-6.594a.316.316,0,1,0-.446-.446Z" transform="translate(-122.613 -191.584)" fill="#bdc7d3" stroke="#bdc7d3" stroke-width="1"/></g></g></svg>