<svg xmlns="http://www.w3.org/2000/svg" xmlns:xlink="http://www.w3.org/1999/xlink" width="20" height="21" viewBox="0 0 20 21"><defs><clipPath id="b"><rect width="20" height="21"/></clipPath></defs><g id="a" clip-path="url(#b)"><g transform="translate(-38.1 -10.744)"><path d="M57.164,29.783h-.9c-.34-3.044-2.391-6.9-5.3-8.539,2.9-1.635,4.956-5.49,5.3-8.539h.9a.857.857,0,1,0,0-1.706H39.036a.857.857,0,1,0,0,1.706h.9c.34,3.044,2.391,6.9,5.3,8.539-2.905,1.635-4.956,5.494-5.3,8.539h-.9a.857.857,0,1,0,0,1.706H57.159a.857.857,0,1,0,0-1.706ZM41.831,12.706H54.369c-.441,3.2-3.185,7.619-6.269,7.619S42.272,15.9,41.831,12.706ZM48.1,22.165c3.084,0,5.828,4.42,6.269,7.619H41.831C42.272,26.584,45.016,22.165,48.1,22.165Z" transform="translate(0 0)" fill="#bdc7d3"/></g></g></svg>