<svg xmlns="http://www.w3.org/2000/svg" xmlns:xlink="http://www.w3.org/1999/xlink" width="40" height="40" viewBox="0 0 40 40"><defs><clipPath id="b"><rect width="40" height="40"/></clipPath></defs><g id="a" clip-path="url(#b)"><g transform="translate(0 -0.2)"><g transform="translate(0 0.2)"><path d="M39.5,37.319,28.019,25.834a15.5,15.5,0,0,0,3.623-9.968A15.822,15.822,0,0,0,0,15.874,15.838,15.838,0,0,0,25.634,28.145L37.151,39.663A1.658,1.658,0,1,0,39.5,37.319ZM3.361,15.874a12.453,12.453,0,0,1,24.9,0,12.453,12.453,0,0,1-24.9,0Z" transform="translate(0 -0.2)" fill="#6f727c"/></g></g></g></svg>