<svg xmlns="http://www.w3.org/2000/svg" xmlns:xlink="http://www.w3.org/1999/xlink" width="24" height="24" viewBox="0 0 24 24"><defs><clipPath id="b"><rect width="24" height="24"/></clipPath></defs><g id="a" clip-path="url(#b)"><g transform="translate(0 -10.159)"><path d="M23.191,18.619,16.036,17.6,12.869,11.1a.993.993,0,0,0-1.736,0L7.965,17.6.805,18.619a.941.941,0,0,0-.511,1.633l5.164,5.06L4.228,32.418A.965.965,0,0,0,5.61,33.441L12,30.067l6.388,3.324a.942.942,0,0,0,1.382-.969l-1.229-7.111,5.164-5.06A.95.95,0,0,0,23.191,18.619ZM16.852,24.24a1.1,1.1,0,0,0-.256.87l.969,5.724-5.11-2.71a1.074,1.074,0,0,0-.92,0l-5.11,2.71L7.4,25.11a1,1,0,0,0-.256-.87L3,20.2l5.724-.816a.936.936,0,0,0,.718-.511L12,13.711l2.557,5.164a1.047,1.047,0,0,0,.718.511l5.715.816Z" transform="translate(0 0)" fill="#bdc7d3"/></g></g></svg>